<?xml version="1.0" encoding="UTF-8"?><svg id="Layer_1" xmlns="http://www.w3.org/2000/svg" viewBox="0 0 1500 1500"><defs><style>.cls-1{fill:#fff;}</style></defs><rect class="cls-1" width="1500" height="1500"/><g><path d="M428.11,762.08c3.51-2.17,7.43-2.3,11.31-1,7.82,2.64-.27,3.49-23.37,73.58-.6,1.81-.76,3.71,.03,5.69,1.79-.03,3.18-.99,4.46-1.9,4.96-3.52,9.94-7.03,14.71-10.79,7.28-5.75,14.15-11.99,20.44-18.82,5.29-5.74,10.48-11.59,15.45-17.61,1.37-1.66,2.19-4.03,2.57-6.2,.72-4,3.25-5.7,6.83-6.37,3.54-.66,7.05-.51,10.46,.84,2.22,.88,3.53,2.45,3.94,4.81,.75,4.28,.3,8.53-.28,12.76-1.8,13.23-3.79,26.42-6.78,39.44-.05,.24,.03,.51,.09,1.16,1.74-1.41,3.32-2.6,4.8-3.89,9.13-7.91,18.21-15.87,27.37-23.75,1.69-1.46,2.44-3.23,2.98-5.32,2.14-8.23,5.96-15.51,11.94-21.71,5.16-5.35,11.23-6.16,18.03-4.72,.44,.09,.87,.25,1.32,.34,.16,.03,.35-.05,.65-.1,.1-1.27,.43-12,3.53-21.6,2.2-6.79,7.45-10.1,14.31-10.87,7.34-.83,13.04,1.89,17.28,8.06,4.2,6.12,6.23,12.68,5.15,20.07-.76,5.19-1.63,10.36-2.5,15.87,1.14-.15,2.45-.27,3.74-.51,8.37-1.54,15.77-5.43,22.99-9.67,1.03-.61,1.75-1.8,2.52-2.79,3.12-4.01,6.05-8.18,9.36-12.03,1.99-2.31,4.43-4.31,6.9-6.13,3.24-2.39,7.03-2.32,10.72-1.33,12.85,3.44-24.46,31.64-20.42,69.1,12.82-6.73,24.19-15.15,36.5-29.14,5.46-6.2,10.55-12.73,15.73-19.17,1.99-2.48,3.67-5.2,5.65-7.68,3.45-4.31,13.54-3.56,11.94,2.1-1.77,6.28-9.65,28.78-9.65,53.01,9.27-3.29,17.82-8.9,24.62-15.24,8.1-7.55,15.76-15.58,23.59-23.42,.37-.37,.62-.87,.78-1.11-.95-2.28-2.05-4.29-2.63-6.44-1.38-5.11-.34-10.14,1.22-15.01,2.27-7.09,5.69-13.63,11.13-18.82,2.47-2.35,5.38-4.32,8.33-6.05,3.32-1.94,7.13-2.12,10.88-1.59,5.5,.78,8.32,4.5,6.91,9.87-1.19,4.54-2.8,9.05-4.87,13.25-3.75,7.59-8.51,14.59-13.81,21.21-.78,.97-1.49,2-2.53,3.39,2.8,1.44,5.26,2.77,7.77,3.97,3.69,1.77,7.41,3.41,10.32,6.47,4.85,5.11,6.28,11.14,4.89,17.87-1.2,5.82-4.42,10.72-7.74,15.51-6.32,9.11-12.83,18.09-19.12,27.21-4.12,5.97-6.52,12.76-8.62,19.64-.27,.9-.15,1.92-.25,3.45,1.32-.59,2.21-.92,3.03-1.37,6.19-3.41,11.35-8.16,16.5-12.89,12.21-11.22,22.91-23.83,33.31-36.71,5.76-7.14,11.65-14.18,17.59-21.17,1.67-1.96,2.26-3.78,1.67-6.41-2.43-10.74-1.54-21.2,4.04-30.85,5.33-9.21,12.97-15.69,23.74-17.55,2.87-.5,6.03-.33,8.89,.32,4.5,1.02,5.88,4.21,3.65,8.29-11.88,21.73-13.53,9.28-7.18,57.56,.08,.6,.25,1.19,.49,2.31,2.09-1.67,3.97-3.02,5.69-4.56,7.77-6.98,15.75-13.76,23.14-21.13,4.73-4.72,8.6-10.31,12.73-15.6,.63-.81,.6-2.13,.99-3.69,1.9-1.89,4.58-.54,6.8-.44,3.34-3.33,6.29-6.7,9.67-9.54,6.29-5.29,13.17-9.79,21.1-12.2,6.31-1.92,12.71-2.16,18.79,1.16,3.98,2.18,5.35,5.28,4.47,9.79-2.09,10.71-8.01,18.96-16.5,25.5-8.14,6.27-17.12,10.98-26.92,14.07-.61,.19-1.2,.41-1.8,.64-.16,.06-.3,.2-.86,.61-.55,4.32-1.27,8.97-1.71,13.65-.32,3.42-.52,6.9-.31,10.33,.3,4.83,2.29,6.49,7.18,6.7,2.77,.12,5.42-.41,7.99-1.44,5.28-2.12,9.94-5.29,14.48-8.64,6.97-5.13,13.39-10.89,19.19-17.32,4.99-5.53,9.99-11.04,14.88-16.65,1.23-1.41,2.17-3.13,2.99-4.83,4.35-9.1,8.35-18.37,12.96-27.32,9.37-18.21,19.95-35.7,32.83-51.69,3.18-3.95,6.79-7.57,10.34-11.21,2.79-2.84,6.16-4.4,10.32-3.93,3.63,.41,4.56,1.75,3.62,5.22-3.23,11.88-8.05,23.16-13.2,34.3-10.73,23.2-39.15,79.83-41.45,106.82-.37,4.36,4.59,8.08,9.02,6.38,6.73-2.58,12.69-6.28,18.09-10.94,8.97-7.74,16.89-16.5,24.55-25.51,4.59-5.4,9.16-10.81,13.57-16.36,1.85-2.33,3.45-4.91,4.81-7.57,24.05-47.11,72.67-103.99,111.94-86.85,6.88,3,10.09,8.95,8.7,16.33-2,10.62-7.19,19.5-14.82,27.06-3.05,3.02-6.17,5.97-10.14,7.71-1.61,.71-3.47,1.06-5.23,1.14-.89,.04-2.18-.69-2.63-1.46-.3-.52,.33-1.88,.9-2.58,2.75-3.38,5.69-6.61,8.41-10.01,4.63-5.79,7.55-12.39,8.77-19.71,.24-1.42,.37-2.9,.3-4.33-.28-5.61-4.96-9.04-10.26-7.17-7.83,2.76-21.57,11.82-33.17,26.29-9.79,12.21-18.96,24.88-26.76,38.46-4.7,8.19-8.77,16.74-13.11,25.13-.16,.31-.19,.68-.27,.99,9.06,4.47,18.53,7.03,28.56,7.46,4.44,.19,8.89,.52,13.33,.48,15.93-.14,30.46-4.64,43.18-14.4,6.27-4.81,12.42-9.78,18.58-14.73,.89-.72,1.63-1.68,2.3-2.62,1.73-2.47,6-3.46,8.59-1.96,.95,.55,1.27,1.29,.77,2.27-.29,.56-.66,1.1-1.1,1.54-7.01,6.98-13.73,14.27-21.61,20.35-9.74,7.52-20.81,11.83-32.79,13.91-11.06,1.92-22.19,2.2-33.4,1.39-5.81-.42-11.59-.89-17.27-2.18-.33-.07-.69-.01-1.29-.01,.08,.81,.1,1.5,.23,2.17,1.14,5.42,2.48,10.81,3.4,16.27,5.57,33.12-11.51,105.61-52.17,96.43-12.09-2.73-16.05-18.67-16.04-28.44,.01-16.43,2.81-32.35,8.42-47.78,2.92-8.02,5.94-16.01,8.91-24.02,.21-.57,.37-1.15,.16-1.99-1.02,1.11-1.99,2.27-3.06,3.34-5.93,5.89-11.7,11.95-17.87,17.57-4.99,4.55-10.85,7.9-17.14,10.46-5.43,2.22-11.07,2.08-16.65,1.32-3.46-.48-6.9-1.61-10.16-2.93-7.76-3.14-11.79-9.08-12.1-17.47-.28-7.55-.05-15.07,1.58-22.5,.11-.51,.06-1.06,.12-2.32-1.34,1.41-2.27,2.35-3.14,3.33-7.1,7.95-14.79,15.28-23.17,21.86-6.3,4.94-13.24,8.73-21.32,9.74-16.31,2.02-32.96-1.02-33.63-17.82-.36-8.94,.02-17.81,2.89-26.4,.05-.14-.07-.33-.16-.72-2.56,2.29-4.96,4.6-7.53,6.72-8.9,7.34-17.8,14.68-26.82,21.88-2.03,1.62-3.41,3.15-3.6,5.93-.25,3.61-.83,7.23-1.65,10.75-2.87,12.4-9.78,21.91-20.81,28.36-3.45,2.02-7.22,2.4-11.08,1.92-2.98-.37-4.94-2.17-5.96-4.96-1.5-4.08-1.22-8.1,.92-11.84,1.39-2.43,2.95-4.83,4.82-6.9,2.67-2.96,5.62-5.68,8.6-8.34,1.49-1.34,2.06-2.54,1.71-4.68-1.37-8.27-3.51-16.33-5.99-24.31-.11-.34-.27-.67-.59-1.42-.91,.98-1.72,1.76-2.42,2.63-7.25,8.98-14.38,18.05-21.74,26.93-6.03,7.27-12.21,14.42-18.58,21.4-4.59,5.03-9.44,9.84-14.46,14.43-2.79,2.55-6.1,4.54-9.3,6.6-4,2.58-8.52,2.95-13.14,2.56-6.74-.57-11.62-5.74-12.09-13.26-1.5-24.09,12.07-37.17,30.47-59.63,3.38-4.12,3.83-8.95,3.15-13.93-.18-1.28-1.16-2.76-2.21-3.56-2.07-1.56-4.46-2.71-6.79-4.06-1.74,1.87-3.31,3.5-4.81,5.18-7.66,8.55-15.75,16.63-24.88,23.62-6.07,4.65-12.37,8.93-19.57,11.75-6.2,2.43-12.55,2.73-19.02,1.55-1.15-.21-2.27-.67-3.36-1.11-4.29-1.74-6.34-4.88-6.11-9.57,.33-6.64,1.25-13.18,2.61-19.68,.12-.59,.17-1.2-.15-2.04-2.03,2.26-4.05,4.53-6.1,6.78-8.22,9.03-16.88,17.53-27.42,23.93-20.28,12.31-41.77-4.27-25.16-40.37,.4-.87,.83-1.73,1.48-3.06-3.51,1.28-6.4,2.6-9.43,3.39-4.11,1.06-8.31,1.88-12.52,2.46-1.77,.24-2.72,.77-3.44,2.41-22.37,51.08-67.88,50.33-68.27,24.18-.01-.9,0-1.8,0-3.34-1.17,.81-1.99,1.28-2.69,1.87-10.66,9.06-21.29,18.16-31.96,27.2-1.26,1.06-1.88,2.33-2.33,3.86-3.55,12.22-7.32,24.38-12.36,36.08-10.28,23.85-34.57,67.22-55.11,74.05-4.37,1.45-8.73,1.6-13.02-.39-3.02-1.4-4.75-3.75-5.55-6.98-1.12-4.52-.55-8.84,1.15-13.07,4.46-11.12,10.37-21.4,17.65-30.91,9.97-13.02,21.07-25.02,32.76-36.48,1.82-1.78,3.01-3.75,3.7-6.2,4.62-16.35,9.09-32.73,12.51-49.39,.67-3.26,1.22-6.55,1.45-10.02-.73,.78-1.49,1.53-2.2,2.33-6.61,7.52-13.6,14.65-21.19,21.19-3.58,3.08-7.04,6.3-10.71,9.28-4.03,3.28-8.31,6.21-13.39,7.69-6.78,1.99-13.31,1.33-19.52-2.08-5.87-3.23-7.29-8.45-8.8-12.58,.07-32.82,27.87-66,36.52-71.37Zm615.65,154.6c4.6-2.57,9.26-6.95,10.99-9.01,6.97-8.34,11.42-18.13,14.8-28.34,4.12-12.44,4.74-25.48,5.38-38.45,.4-8.23-1.35-16.26-3.05-24.26-.48-2.25-1.17-4.45-1.77-6.68-.2,0-.4,0-.6-.01-.46,1.05-.95,2.1-1.39,3.17-7.03,16.95-13.58,34.08-18.94,51.65-3.8,12.45-6.62,25.1-7.77,38.09-.6,6.64,.78,10.43,2.35,13.84Zm-596.31-29.59c-.79,.38-1,.42-1.11,.54-.96,1.09-1.9,2.2-2.87,3.28-7.74,8.58-15,17.53-21.33,27.21-4.83,7.4-9.01,15.14-11.89,23.53-1.24,3.61-1.62,7.26-.57,10.97,.23,.82,.69,1.57,1.2,2.68,1.38-1.01,2.64-1.64,3.5-2.61,2.7-3.05,5.65-5.99,7.81-9.41,6.93-11,13.05-22.46,17.69-34.64,2.65-6.94,4.94-14.01,7.57-21.55Zm109.44-102.56c-9.59,9.9-16.61,35.35-12.17,43.53,9.33-4.17,27.71-25.3,29.2-33.66-6.75-1.4-13.22-3.37-17.03-9.87Zm20.12,4.07c.36-.84,.81-1.56,.97-2.33,3.57-17.1,5.48-20.9-.36-30.21-.79-1.26-1.96-2.29-2.92-3.39-6.79,2.46-15.64,35,2.31,35.93Zm329.29,8.11c.36-.06,.73-.03,1.01-.19,7.76-4.24,15.13-9,20.96-15.8,3.87-4.51,6.16-9.8,7.41-15.57,.3-1.4,.59-2.88-.84-3.91-9.76,3.07-28.19,25.94-28.54,35.47Zm-159-20.91c.16-.43,.25-.9,.49-1.27,2.54-3.75,5.2-7.43,7.65-11.25,2.91-4.52,5.24-9.34,6.55-14.59,.22-.9,.27-1.84,.42-2.96-8.29,3.32-17.15,21.62-15.11,30.07Zm67.57,90.57c4.37-3.99,7.58-11.84,6.85-16.55-6.01,4.65-8.71,11.29-6.85,16.55Z"/><path d="M657.7,1040.01c-5.22-.03-11.08-4.17-14.94-6.72-14.71-9.7-20.92-28.92-23.05-46.4-.86-7.05-.91-14.13,.41-21.15,.28-1.49,.94-2.91,1.52-4.66-1.24-.48-2.56-1.04-3.9-1.5-10.57-3.61-20.42-8.62-29.39-15.27-2.33-1.73-4.56-3.61-6.66-5.61-1.99-1.9-3.28-4.3-3.98-6.93,1.88-1.85,4.38-2.14,6.72-.73,.85,.51,1.55,1.25,2.35,1.85,3.56,2.65,6.98,5.55,10.75,7.88,7.26,4.5,14.82,8.5,22.98,11.21,.93,.31,1.87,.61,2.88,.94,.27-.45,.52-.72,.61-1.04,3.82-14.27,21.95-45.75,61.36-60.58,2.61-.98,5.27-1.38,8.02-1.11,4.01,.41,5.8,2.66,5.31,6.64-.52,4.22-2.03,8.08-4.26,11.69-6.78,11.01-15.45,20.39-24.97,29.06-7.48,6.81-15.32,13.12-23.91,18.48-.91,.57-1.75,1.25-3.04,2.19,23.34,5.81,46.55,8.23,70.27,7.46,.25-.51,.52-1.05,.79-1.61,1.83-3.85,3.55-7.75,5.52-11.53,1.68-3.22,3.76-6.23,5.46-9.44,6.81-12.81,16.65-22.85,28.39-31.15,2.82-1.99,5.72-3.87,8.57-5.82,2.63-1.79,5.57-2.15,8.62-1.75,3.96,.52,5.72,3.06,4.69,6.96-.69,2.63-1.37,5.34-2.62,7.72-12.17,23.08-15.37,28.28-23.93,35.87-3.95,3.5-7.3,7.28-11.05,11,6.03-.49,12.14-.54,18.09-1.55,12.7-2.16,25.32-4.85,37.98-7.24,2.02-.38,2.75-1.32,3.18-3.33,1.51-7.18,4.39-13.83,8.42-19.98,4.39-6.69,8.94-13.27,14.35-19.19,4.93-5.39,10.42-10.1,16.66-13.97,3.12-1.93,6.39-2.45,9.92-1.92,3.29,.49,4.9,2.19,4.69,5.53-.14,2.23-.51,4.56-1.36,6.61-3.73,9-7.98,17.73-13.99,25.49-3.54,4.57-7.84,8.33-12.29,11.94-.69,.57-1.37,1.16-1.91,2.12,1.43-.33,2.85-.69,4.28-1,10.95-2.33,21.66-5.49,32-9.79,1.54-.64,2.98-1.69,4.26-2.79,3.6-3.05,6.93-6.44,10.67-9.29,18.46-14.1,42.95-14.77,64.99-14.11,2.54,.08,5.1,.21,7.59,.66,1.65,.3,3.3,1.03,4.74,1.91,13.06,8.1-19.13,34.34-25.83,37.59-17.31,8.4-42.83,6.8-60.15-1.13-.82-.38-2-.55-2.83-.27-13.13,4.39-26.8,6.62-40.15,10.12-.85,.22-1.68,.49-2.86,.83,1.95,1.45,3.68,2.58,5.23,3.92,1.91,1.66,22.29,19.25,23.79,21.2,4.37,5.65,4.4,9.98-1.1,10.43-22.53,1.82-38.86-12.75-50.42-30.56-.93,.13-1.99,.26-3.04,.43-36.02,6.1-27.88,5.16-45.04,5.67-3.71,.11-7.43,.02-11.33,.45,.61,.45,1.18,.95,1.82,1.33,3,1.78,5.57,4,7.86,6.66,5.46,6.33,11.18,12.44,16.56,18.84,3.27,3.88,6.1,8.13,9.13,12.22,.05,.07,.09,.16,.14,.23,2.85,5.05,.92,8.49-4.92,8.83-4.89,.29-9.58-.62-14.19-2.14-27.37-9.06-39.13-27.01-39.95-43.49-.03-.54-.11-1.08-.22-1.62-.07-.35-.23-.68-.46-1.31-22.6,.33-45.03-1.84-67.49-7.4,.28,.98,.35,1.57,.6,2.07,.9,1.78,1.79,3.57,2.81,5.29,6.02,10.14,24.44,55.53,15.95,63.54-1.69,1.61-3.64,2.23-5.7,2.22Z"/><path d="M734.65,657.95c2.7-1.63,5.51-3.09,8.07-4.91,6.69-4.75,12.64-10.37,18.37-16.22,2.99-3.05,5.97-6.12,8.94-9.18,6.9-7.11,13.8-14.22,20.69-21.33,.38-.39,.75-.79,1.08-1.23,2.77-3.73,9.26-4.79,13.13-2.14,1.31,.9,1.98,2.15,1.9,3.71-.1,2.08-.19,4.17-.53,6.22-1.39,8.5-2.87,16.99-4.32,25.48-1.38,8.05-2.78,16.09-4.16,24.13-.09,.51-.07,1.03-.14,2.1,2.75-1.46,5.19-2.61,7.48-4.01,6.84-4.19,13.12-9.15,19-14.6,10.33-9.58,20.56-19.27,30.86-28.87,.99-.92,1.45-1.81,1.02-3.1-4.57-13.73,11.7-31.26,25.92-29.86,1.84,.18,3.71,.81,5.4,1.59,1.73,.8,2.5,2.52,1.91,4.36-.6,1.88-1.33,3.82-2.48,5.39-2.35,3.22-5.01,6.22-7.56,9.29-.63,.76-1.32,1.47-2.18,2.42,1.09,2.59,2.18,5.16,3.27,7.74,31.84,75.13-4.03,92.84-22.61,90.96-3.56-.36-6.25-2.31-8.24-5.24-.82-1.21-1.14-2.57-.47-3.87,.67-1.29,2.1-1.49,3.35-1.27,1.19,.21,2.36,.76,3.42,1.36,.83,.47,1.5,1.24,2.29,1.92,1.79-1.47,2.64-3.32,3.19-5.19,1.15-3.91,2.2-7.86,3-11.85,1.36-6.74,.85-13.55,.36-20.35-.79-10.91-3.59-21.45-5.89-32.07-.26-1.21-.47-2.44-.78-4.13-1.2,1.14-2.09,2.01-2.99,2.85-10.08,9.31-20.07,18.72-30.27,27.9-5.82,5.25-12.41,9.45-19.38,13.09-4.56,2.38-9.32,2.96-14.28,2.48-6.2-.6-10.11-4.87-10.63-11.14-.67-8.17,.92-16.08,2.49-24,.64-3.2,1.46-6.37,2.18-9.56,.13-.57,.15-1.17-.17-1.98-2.5,2.61-5.06,5.16-7.49,7.83-7.72,8.48-15.59,16.79-24.66,23.86-2.71,2.11-5.64,4-8.65,5.66-6.67,3.68-13.85,4.19-21.16,2.58-7.26-1.6-10.42-5.6-10.65-13.07-.2-6.6,1.13-13,2.9-19.31,.33-1.18,.66-2.35,.98-3.53-.18-.1-.36-.19-.54-.29-1.72,1.85-3.42,3.7-5.15,5.53-7.63,8.05-15.17,16.18-22.92,24.1-23.49,24.03-45.9,25.99-58.21,20.18-6.77-3.19-9.19-7.51-8.03-14.93,.46-2.94,1.2-5.89,2.25-8.67,4.88-12.91,11.66-24.81,19.83-35.92,1.62-2.2,3.21-4.41,4.79-6.63,.47-.66,.91-1.36,1.3-2.08,2-3.77,1.18-5.53-3.1-6.22-3.94-.63-7.93-.91-11.87-1.53-4.12-.65-8.2-1.52-12.31-2.28-.35-.07-.71-.07-1.27-.12-.46,.58-1,1.17-1.44,1.83-8.07,12.25-17.33,23.62-27.02,34.55-12.14,13.7-25.43,26.29-41.08,36.02-8.54,5.31-17.94,8.29-28.19,7.95-5.07-.17-10.16,.21-15.17-1.1-38.04-9.9,1.72-94.89,15.88-128.74,.41-.99,.8-1.98,1.38-3.4-1.87,.3-3.36,.51-4.84,.8-10.43,2.04-20.91,3.77-31.55,4.26-5.89,.27-11.81,.65-17.7,.42-15.67-.63-30.58-4.13-43.96-12.73-2.14-1.37-4.14-2.96-6.16-4.5-.47-.36-.79-.93-1.16-1.38,.51-1.79,1.88-2,3.24-2.14,2.52-.26,4.87,.48,7.12,1.5,2.48,1.13,4.93,2.33,7.33,3.62,8.32,4.47,17.06,7.62,26.51,8.68,6.7,.75,13.38,.89,20.12,.42,14.27-.98,28.26-3.56,42.18-6.69,2.18-.49,3.42-1.46,4.36-3.47,8.32-17.79,17.98-34.88,27.68-51.94,1.88-3.3,4.1-6.45,6.46-9.43,3.49-4.42,10.25-5.7,15.34-3.23,1.64,.8,2.65,2.01,2.38,3.87-.42,2.86-.79,5.75-1.51,8.55-2.59,9.97-6.68,19.39-10.75,28.82-2.2,5.08-4.42,10.16-6.61,15.25-.28,.64-.46,1.31-.81,2.33,1.09-.17,1.87-.25,2.64-.41,14.22-2.9,28.41-6.02,42.68-8.64,8.74-1.6,17.61-2.46,26.43-3.62,12.54-1.65,25.14-2.25,37.77-2.45,9.08-.14,18.18-.11,27.17,1.45,2.21,.38,4.36,1.22,6.45,2.08,1.87,.77,2.89,2.41,3.4,4.36,.33,1.25-.05,2.12-1.24,2.65-2.14,.95-5.24,.28-6.61-1.65-1.04-1.48-2.42-2.13-4.1-2.36-6.04-.84-12.1-1.23-18.2-.93-2.72,.13-5.45,.19-8.17,.41-8.05,.63-16.11,1.2-24.14,2.03-7.49,.78-14.98,1.65-22.41,2.86-11.73,1.91-23.44,3.99-35.09,6.3-9.43,1.87-18.77,4.23-28.16,6.31-1.75,.39-2.78,1.24-3.49,2.94-13.26,31.74-40.98,96.66-39.66,126.94,.14,3.23,1.11,3.97,4.2,4.69,2.76,.64,5.41,.26,8.09-.29,5.76-1.17,11.08-3.44,16.06-6.55,8.83-5.51,16.79-12.13,24.39-19.2,15.92-14.8,29.6-31.5,41.7-49.52,.45-.67,.85-1.38,1.26-2.04-.14-.35-.21-.61-.34-.84-4.66-7.82-3.58-19.4,2.41-26.2,2.92-3.32,6.51-4.86,10.92-4.25,4.26,.58,6.72,3.16,6.84,7.47,.05,1.77-.34,3.61-.83,5.34-1.49,5.29-4.01,10.12-6.89,14.78-.47,.76-.9,1.54-1.4,2.4,2.5,1.98,5.39,2.48,8.23,2.91,5.65,.85,11.35,1.42,17,2.26,2.32,.34,4.66,.88,6.87,1.65,6.62,2.32,9.75,7.65,7.8,14.39-2.09,7.22-4.77,14.28-7.45,21.32-2.98,7.86-12.74,30.1-13.46,36.66,1.09,1.38,2.52,1.37,3.81,1,10.59-2.99,20.34-7.18,31.49-18.59,10.48-10.72,20.65-21.75,30.96-32.63,3.56-3.76,7.13-7.52,10.79-11.18,1.63-1.63,2.9-3.43,3.98-5.46,1.53-2.88,3.22-5.69,5.05-8.38,2.2-3.24,5.46-4.8,9.32-4.75,2.61,.03,5.3,.13,7.79,.82,3.62,1.01,4.38,2.8,3.27,6.43-3.3,10.77-6.77,21.48-9.93,32.28-2.16,7.4-3.92,14.92-5.84,22.39-.17,.68-.21,1.4-.31,2.1,.25,.19,.44,.37,.64,.55Zm-113.86-74.21c2.44-3.85,3.84-8.95,3.21-11.73-2.23,3.62-3.03,7.41-3.21,11.73Z"/><path d="M953.68,530.67c-3.66,.53-6.7,.92-9.72,1.41-15.14,2.45-30.25,5.1-45.42,7.3-7.8,1.13-15.71,1.85-23.58,2.09-14.95,.47-29.55-1.57-43.29-7.95-3.56-1.65-7.02-3.53-9.71-6.44-1.14-1.23-2.05-2.76-2.75-4.3-.8-1.76-.59-3.61,.84-5.06,1.15-1.17,3.45-1.08,5.74,.15-.9,1.97,.5,3.08,1.81,4.21,6.93,5.98,15.13,9.27,23.94,11.21,10.04,2.2,20.17,2.29,30.36,1.27,16.19-1.62,32.13-4.77,48.14-7.51,8.41-1.44,16.83-2.8,25.26-4.09,1.72-.26,2.71-1.03,3.47-2.57,5.16-10.32,10.24-20.68,15.65-30.87,4.56-8.59,9.7-16.86,15.8-24.48,1.41-1.77,2.98-3.44,4.64-4.97,3.3-3.03,7.23-3.09,11.24-1.84,2.09,.65,2.75,1.74,2.63,3.91-.08,1.34-.3,2.74-.79,3.97-2.44,6.16-4.93,12.3-7.5,18.41-4.69,11.13-9.46,22.23-14.19,33.34-.1,.24-.14,.51-.27,.99,1.79-.11,3.46-.19,5.13-.33,8.87-.73,17.73-1.43,26.59-2.21,17.21-1.53,34.47-1.87,51.73-1.78,10.81,.05,21.62,.4,32.42,.91,10.61,.51,21.21,1.28,31.8,2.16,4.6,.38,9.17,1.2,13.72,2.05,1.55,.29,3.04,1.15,4.42,1.98,1.14,.69,1.73,1.91,1.42,3.3-.31,1.38-1.53,1.8-2.69,1.94-2.35,.28-4.68,.42-6.89-.88-.98-.58-2.2-.93-3.34-1.03-5.15-.46-10.31-.91-15.48-1.14-10.88-.48-21.77-.99-32.66-1.19-16.08-.3-32.16-.52-48.24-.41-7.97,.06-15.93,.93-23.9,1.45-5.98,.39-11.95,.73-17.92,1.21-5.88,.47-11.74,1.11-17.61,1.64-1.3,.12-2.14,.65-2.68,1.91-7.33,17.01-48.39,120.76-37.55,136.35,3.69,5.31,15.29-3.02,20.31-6.92,11.33-8.79,21.23-19.03,30.39-30.03,4.88-5.86,9.86-11.65,14.9-17.38,2.17-2.47,4.61-2.58,7.45-.54-.38,.81-.66,1.76-1.2,2.52-3.53,4.95-6.93,10.01-10.71,14.76-8.77,11.05-18.2,21.53-29.1,30.54-16.01,13.22-28.1,21.59-47.02,11.93-6.61-3.38-10.2-9.15-11.29-16.42-3.58-23.98,22.79-92.24,33.73-118.04,.55-1.29,1.13-2.6,1.97-4.53Z"/></g></svg>