<?xml version="1.0" encoding="utf-8"?>
<!-- Generator: Adobe Illustrator 26.5.0, SVG Export Plug-In . SVG Version: 6.00 Build 0)  -->
<svg version="1.1" id="Layer_1" xmlns="http://www.w3.org/2000/svg" xmlns:xlink="http://www.w3.org/1999/xlink" x="0px" y="0px"
	 viewBox="0 0 1500 1500" style="enable-background:new 0 0 1500 1500;" xml:space="preserve">
<style type="text/css">
	.st0{fill:#FFFFFF;}
</style>
<rect class="st0" width="1500" height="1500"/>
<g>
	<path d="M428.11,762.08c3.51-2.17,7.43-2.3,11.31-1c7.82,2.64-0.27,3.49-23.37,73.58c-0.6,1.81-0.76,3.71,0.03,5.69
		c1.79-0.03,3.18-0.99,4.46-1.9c4.96-3.52,9.94-7.03,14.71-10.79c7.28-5.75,14.15-11.99,20.44-18.82
		c5.29-5.74,10.48-11.59,15.45-17.61c1.37-1.66,2.19-4.03,2.57-6.2c0.72-4,3.25-5.7,6.83-6.37c3.54-0.66,7.05-0.51,10.46,0.84
		c2.22,0.88,3.53,2.45,3.94,4.81c0.75,4.28,0.3,8.53-0.28,12.76c-1.8,13.23-3.79,26.42-6.78,39.44c-0.05,0.24,0.03,0.51,0.09,1.16
		c1.74-1.41,3.32-2.6,4.8-3.89c9.13-7.91,18.21-15.87,27.37-23.75c1.69-1.46,2.44-3.23,2.98-5.32c2.14-8.23,5.96-15.51,11.94-21.71
		c5.16-5.35,11.23-6.16,18.03-4.72c0.44,0.09,0.87,0.25,1.32,0.34c0.16,0.03,0.35-0.05,0.65-0.1c0.1-1.27,0.43-12,3.53-21.6
		c2.2-6.79,7.45-10.1,14.31-10.87c7.34-0.83,13.04,1.89,17.28,8.06c4.2,6.12,6.23,12.68,5.15,20.07c-0.76,5.19-1.63,10.36-2.5,15.87
		c1.14-0.15,2.45-0.27,3.74-0.51c8.37-1.54,15.77-5.43,22.99-9.67c1.03-0.61,1.75-1.8,2.52-2.79c3.12-4.01,6.05-8.18,9.36-12.03
		c1.99-2.31,4.43-4.31,6.9-6.13c3.24-2.39,7.03-2.32,10.72-1.33c12.85,3.44-24.46,31.64-20.42,69.1
		c12.82-6.73,24.19-15.15,36.5-29.14c5.46-6.2,10.55-12.73,15.73-19.17c1.99-2.48,3.67-5.2,5.65-7.68
		c3.45-4.31,13.54-3.56,11.94,2.1c-1.77,6.28-9.65,28.78-9.65,53.01c9.27-3.29,17.82-8.9,24.62-15.24
		c8.1-7.55,15.76-15.58,23.59-23.42c0.37-0.37,0.62-0.87,0.78-1.11c-0.95-2.28-2.05-4.29-2.63-6.44
		c-1.38-5.11-0.34-10.14,1.22-15.01c2.27-7.09,5.69-13.63,11.13-18.82c2.47-2.35,5.38-4.32,8.33-6.05
		c3.32-1.94,7.13-2.12,10.88-1.59c5.5,0.78,8.32,4.5,6.91,9.87c-1.19,4.54-2.8,9.05-4.87,13.25c-3.75,7.59-8.51,14.59-13.81,21.21
		c-0.78,0.97-1.49,2-2.53,3.39c2.8,1.44,5.26,2.77,7.77,3.97c3.69,1.77,7.41,3.41,10.32,6.47c4.85,5.11,6.28,11.14,4.89,17.87
		c-1.2,5.82-4.42,10.72-7.74,15.51c-6.32,9.11-12.83,18.09-19.12,27.21c-4.12,5.97-6.52,12.76-8.62,19.64
		c-0.27,0.9-0.15,1.92-0.25,3.45c1.32-0.59,2.21-0.92,3.03-1.37c6.19-3.41,11.35-8.16,16.5-12.89
		c12.21-11.22,22.91-23.83,33.31-36.71c5.76-7.14,11.65-14.18,17.59-21.17c1.67-1.96,2.26-3.78,1.67-6.41
		c-2.43-10.74-1.54-21.2,4.04-30.85c5.33-9.21,12.97-15.69,23.74-17.55c2.87-0.5,6.03-0.33,8.89,0.32c4.5,1.02,5.88,4.21,3.65,8.29
		c-11.88,21.73-13.53,9.28-7.18,57.56c0.08,0.6,0.25,1.19,0.49,2.31c2.09-1.67,3.97-3.02,5.69-4.56
		c7.77-6.98,15.75-13.76,23.14-21.13c4.73-4.72,8.6-10.31,12.73-15.6c0.63-0.81,0.6-2.13,0.99-3.69c1.9-1.89,4.58-0.54,6.8-0.44
		c3.34-3.33,6.29-6.7,9.67-9.54c6.29-5.29,13.17-9.79,21.1-12.2c6.31-1.92,12.71-2.16,18.79,1.16c3.98,2.18,5.35,5.28,4.47,9.79
		c-2.09,10.71-8.01,18.96-16.5,25.5c-8.14,6.27-17.12,10.98-26.92,14.07c-0.61,0.19-1.2,0.41-1.8,0.64c-0.16,0.06-0.3,0.2-0.86,0.61
		c-0.55,4.32-1.27,8.97-1.71,13.65c-0.32,3.42-0.52,6.9-0.31,10.33c0.3,4.83,2.29,6.49,7.18,6.7c2.77,0.12,5.42-0.41,7.99-1.44
		c5.28-2.12,9.94-5.29,14.48-8.64c6.97-5.13,13.39-10.89,19.19-17.32c4.99-5.53,9.99-11.04,14.88-16.65
		c1.23-1.41,2.17-3.13,2.99-4.83c4.35-9.1,8.35-18.37,12.96-27.32c9.37-18.21,19.95-35.7,32.83-51.69
		c3.18-3.95,6.79-7.57,10.34-11.21c2.79-2.84,6.16-4.4,10.32-3.93c3.63,0.41,4.56,1.75,3.62,5.22c-3.23,11.88-8.05,23.16-13.2,34.3
		c-10.73,23.2-39.15,79.83-41.45,106.82c-0.37,4.36,4.59,8.08,9.02,6.38c6.73-2.58,12.69-6.28,18.09-10.94
		c8.97-7.74,16.89-16.5,24.55-25.51c4.59-5.4,9.16-10.81,13.57-16.36c1.85-2.33,3.45-4.91,4.81-7.57
		c24.05-47.11,72.67-103.99,111.94-86.85c6.88,3,10.09,8.95,8.7,16.33c-2,10.62-7.19,19.5-14.82,27.06
		c-3.05,3.02-6.17,5.97-10.14,7.71c-1.61,0.71-3.47,1.06-5.23,1.14c-0.89,0.04-2.18-0.69-2.63-1.46c-0.3-0.52,0.33-1.88,0.9-2.58
		c2.75-3.38,5.69-6.61,8.41-10.01c4.63-5.79,7.55-12.39,8.77-19.71c0.24-1.42,0.37-2.9,0.3-4.33c-0.28-5.61-4.96-9.04-10.26-7.17
		c-7.83,2.76-21.57,11.82-33.17,26.29c-9.79,12.21-18.96,24.88-26.76,38.46c-4.7,8.19-8.77,16.74-13.11,25.13
		c-0.16,0.31-0.19,0.68-0.27,0.99c9.06,4.47,18.53,7.03,28.56,7.46c4.44,0.19,8.89,0.52,13.33,0.48
		c15.93-0.14,30.46-4.64,43.18-14.4c6.27-4.81,12.42-9.78,18.58-14.73c0.89-0.72,1.63-1.68,2.3-2.62c1.73-2.47,6-3.46,8.59-1.96
		c0.95,0.55,1.27,1.29,0.77,2.27c-0.29,0.56-0.66,1.1-1.1,1.54c-7.01,6.98-13.73,14.27-21.61,20.35
		c-9.74,7.52-20.81,11.83-32.79,13.91c-11.06,1.92-22.19,2.2-33.4,1.39c-5.81-0.42-11.59-0.89-17.27-2.18
		c-0.33-0.07-0.69-0.01-1.29-0.01c0.08,0.81,0.1,1.5,0.23,2.17c1.14,5.42,2.48,10.81,3.4,16.27c5.57,33.12-11.51,105.61-52.17,96.43
		c-12.09-2.73-16.05-18.67-16.04-28.44c0.01-16.43,2.81-32.35,8.42-47.78c2.92-8.02,5.94-16.01,8.91-24.02
		c0.21-0.57,0.37-1.15,0.16-1.99c-1.02,1.11-1.99,2.27-3.06,3.34c-5.93,5.89-11.7,11.95-17.87,17.57
		c-4.99,4.55-10.85,7.9-17.14,10.46c-5.43,2.22-11.07,2.08-16.65,1.32c-3.46-0.48-6.9-1.61-10.16-2.93
		c-7.76-3.14-11.79-9.08-12.1-17.47c-0.28-7.55-0.05-15.07,1.58-22.5c0.11-0.51,0.06-1.06,0.12-2.32c-1.34,1.41-2.27,2.35-3.14,3.33
		c-7.1,7.95-14.79,15.28-23.17,21.86c-6.3,4.94-13.24,8.73-21.32,9.74c-16.31,2.02-32.96-1.02-33.63-17.82
		c-0.36-8.94,0.02-17.81,2.89-26.4c0.05-0.14-0.07-0.33-0.16-0.72c-2.56,2.29-4.96,4.6-7.53,6.72c-8.9,7.34-17.8,14.68-26.82,21.88
		c-2.03,1.62-3.41,3.15-3.6,5.93c-0.25,3.61-0.83,7.23-1.65,10.75c-2.87,12.4-9.78,21.91-20.81,28.36
		c-3.45,2.02-7.22,2.4-11.08,1.92c-2.98-0.37-4.94-2.17-5.96-4.96c-1.5-4.08-1.22-8.1,0.92-11.84c1.39-2.43,2.95-4.83,4.82-6.9
		c2.67-2.96,5.62-5.68,8.6-8.34c1.49-1.34,2.06-2.54,1.71-4.68c-1.37-8.27-3.51-16.33-5.99-24.31c-0.11-0.34-0.27-0.67-0.59-1.42
		c-0.91,0.98-1.72,1.76-2.42,2.63c-7.25,8.98-14.38,18.05-21.74,26.93c-6.03,7.27-12.21,14.42-18.58,21.4
		c-4.59,5.03-9.44,9.84-14.46,14.43c-2.79,2.55-6.1,4.54-9.3,6.6c-4,2.58-8.52,2.95-13.14,2.56c-6.74-0.57-11.62-5.74-12.09-13.26
		c-1.5-24.09,12.07-37.17,30.47-59.63c3.38-4.12,3.83-8.95,3.15-13.93c-0.18-1.28-1.16-2.76-2.21-3.56
		c-2.07-1.56-4.46-2.71-6.79-4.06c-1.74,1.87-3.31,3.5-4.81,5.18c-7.66,8.55-15.75,16.63-24.88,23.62
		c-6.07,4.65-12.37,8.93-19.57,11.75c-6.2,2.43-12.55,2.73-19.02,1.55c-1.15-0.21-2.27-0.67-3.36-1.11
		c-4.29-1.74-6.34-4.88-6.11-9.57c0.33-6.64,1.25-13.18,2.61-19.68c0.12-0.59,0.17-1.2-0.15-2.04c-2.03,2.26-4.05,4.53-6.1,6.78
		c-8.22,9.03-16.88,17.53-27.42,23.93c-20.28,12.31-41.77-4.27-25.16-40.37c0.4-0.87,0.83-1.73,1.48-3.06
		c-3.51,1.28-6.4,2.6-9.43,3.39c-4.11,1.06-8.31,1.88-12.52,2.46c-1.77,0.24-2.72,0.77-3.44,2.41
		c-22.37,51.08-67.88,50.33-68.27,24.18c-0.01-0.9,0-1.8,0-3.34c-1.17,0.81-1.99,1.28-2.69,1.87c-10.66,9.06-21.29,18.16-31.96,27.2
		c-1.26,1.06-1.88,2.33-2.33,3.86c-3.55,12.22-7.32,24.38-12.36,36.08c-10.28,23.85-34.57,67.22-55.11,74.05
		c-4.37,1.45-8.73,1.6-13.02-0.39c-3.02-1.4-4.75-3.75-5.55-6.98c-1.12-4.52-0.55-8.84,1.15-13.07
		c4.46-11.12,10.37-21.4,17.65-30.91c9.97-13.02,21.07-25.02,32.76-36.48c1.82-1.78,3.01-3.75,3.7-6.2
		c4.62-16.35,9.09-32.73,12.51-49.39c0.67-3.26,1.22-6.55,1.45-10.02c-0.73,0.78-1.49,1.53-2.2,2.33
		c-6.61,7.52-13.6,14.65-21.19,21.19c-3.58,3.08-7.04,6.3-10.71,9.28c-4.03,3.28-8.31,6.21-13.39,7.69
		c-6.78,1.99-13.31,1.33-19.52-2.08c-5.87-3.23-7.29-8.45-8.8-12.58C391.66,800.63,419.46,767.45,428.11,762.08z M1043.76,916.68
		c4.6-2.57,9.26-6.95,10.99-9.01c6.97-8.34,11.42-18.13,14.8-28.34c4.12-12.44,4.74-25.48,5.38-38.45
		c0.4-8.23-1.35-16.26-3.05-24.26c-0.48-2.25-1.17-4.45-1.77-6.68c-0.2,0-0.4,0-0.6-0.01c-0.46,1.05-0.95,2.1-1.39,3.17
		c-7.03,16.95-13.58,34.08-18.94,51.65c-3.8,12.45-6.62,25.1-7.77,38.09C1040.81,909.48,1042.19,913.27,1043.76,916.68z
		 M447.45,887.09c-0.79,0.38-1,0.42-1.11,0.54c-0.96,1.09-1.9,2.2-2.87,3.28c-7.74,8.58-15,17.53-21.33,27.21
		c-4.83,7.4-9.01,15.14-11.89,23.53c-1.24,3.61-1.62,7.26-0.57,10.97c0.23,0.82,0.69,1.57,1.2,2.68c1.38-1.01,2.64-1.64,3.5-2.61
		c2.7-3.05,5.65-5.99,7.81-9.41c6.93-11,13.05-22.46,17.69-34.64C442.53,901.7,444.82,894.63,447.45,887.09z M556.89,784.53
		c-9.59,9.9-16.61,35.35-12.17,43.53c9.33-4.17,27.71-25.3,29.2-33.66C567.17,793,560.7,791.03,556.89,784.53z M577.01,788.6
		c0.36-0.84,0.81-1.56,0.97-2.33c3.57-17.1,5.48-20.9-0.36-30.21c-0.79-1.26-1.96-2.29-2.92-3.39
		C567.91,755.13,559.06,787.67,577.01,788.6z M906.3,796.71c0.36-0.06,0.73-0.03,1.01-0.19c7.76-4.24,15.13-9,20.96-15.8
		c3.87-4.51,6.16-9.8,7.41-15.57c0.3-1.4,0.59-2.88-0.84-3.91C925.08,764.31,906.65,787.18,906.3,796.71z M747.3,775.8
		c0.16-0.43,0.25-0.9,0.49-1.27c2.54-3.75,5.2-7.43,7.65-11.25c2.91-4.52,5.24-9.34,6.55-14.59c0.22-0.9,0.27-1.84,0.42-2.96
		C754.12,749.05,745.26,767.35,747.3,775.8z M814.87,866.37c4.37-3.99,7.58-11.84,6.85-16.55
		C815.71,854.47,813.01,861.11,814.87,866.37z"/>
	<path d="M657.7,1040.01c-5.22-0.03-11.08-4.17-14.94-6.72c-14.71-9.7-20.92-28.92-23.05-46.4c-0.86-7.05-0.91-14.13,0.41-21.15
		c0.28-1.49,0.94-2.91,1.52-4.66c-1.24-0.48-2.56-1.04-3.9-1.5c-10.57-3.61-20.42-8.62-29.39-15.27c-2.33-1.73-4.56-3.61-6.66-5.61
		c-1.99-1.9-3.28-4.3-3.98-6.93c1.88-1.85,4.38-2.14,6.72-0.73c0.85,0.51,1.55,1.25,2.35,1.85c3.56,2.65,6.98,5.55,10.75,7.88
		c7.26,4.5,14.82,8.5,22.98,11.21c0.93,0.31,1.87,0.61,2.88,0.94c0.27-0.45,0.52-0.72,0.61-1.04c3.82-14.27,21.95-45.75,61.36-60.58
		c2.61-0.98,5.27-1.38,8.02-1.11c4.01,0.41,5.8,2.66,5.31,6.64c-0.52,4.22-2.03,8.08-4.26,11.69
		c-6.78,11.01-15.45,20.39-24.97,29.06c-7.48,6.81-15.32,13.12-23.91,18.48c-0.91,0.57-1.75,1.25-3.04,2.19
		c23.34,5.81,46.55,8.23,70.27,7.46c0.25-0.51,0.52-1.05,0.79-1.61c1.83-3.85,3.55-7.75,5.52-11.53c1.68-3.22,3.76-6.23,5.46-9.44
		c6.81-12.81,16.65-22.85,28.39-31.15c2.82-1.99,5.72-3.87,8.57-5.82c2.63-1.79,5.57-2.15,8.62-1.75c3.96,0.52,5.72,3.06,4.69,6.96
		c-0.69,2.63-1.37,5.34-2.62,7.72c-12.17,23.08-15.37,28.28-23.93,35.87c-3.95,3.5-7.3,7.28-11.05,11
		c6.03-0.49,12.14-0.54,18.09-1.55c12.7-2.16,25.32-4.85,37.98-7.24c2.02-0.38,2.75-1.32,3.18-3.33c1.51-7.18,4.39-13.83,8.42-19.98
		c4.39-6.69,8.94-13.27,14.35-19.19c4.93-5.39,10.42-10.1,16.66-13.97c3.12-1.93,6.39-2.45,9.92-1.92c3.29,0.49,4.9,2.19,4.69,5.53
		c-0.14,2.23-0.51,4.56-1.36,6.61c-3.73,9-7.98,17.73-13.99,25.49c-3.54,4.57-7.84,8.33-12.29,11.94c-0.69,0.57-1.37,1.16-1.91,2.12
		c1.43-0.33,2.85-0.69,4.28-1c10.95-2.33,21.66-5.49,32-9.79c1.54-0.64,2.98-1.69,4.26-2.79c3.6-3.05,6.93-6.44,10.67-9.29
		c18.46-14.1,42.95-14.77,64.99-14.11c2.54,0.08,5.1,0.21,7.59,0.66c1.65,0.3,3.3,1.03,4.74,1.91c13.06,8.1-19.13,34.34-25.83,37.59
		c-17.31,8.4-42.83,6.8-60.15-1.13c-0.82-0.38-2-0.55-2.83-0.27c-13.13,4.39-26.8,6.62-40.15,10.12c-0.85,0.22-1.68,0.49-2.86,0.83
		c1.95,1.45,3.68,2.58,5.23,3.92c1.91,1.66,22.29,19.25,23.79,21.2c4.37,5.65,4.4,9.98-1.1,10.43
		c-22.53,1.82-38.86-12.75-50.42-30.56c-0.93,0.13-1.99,0.26-3.04,0.43c-36.02,6.1-27.88,5.16-45.04,5.67
		c-3.71,0.11-7.43,0.02-11.33,0.45c0.61,0.45,1.18,0.95,1.82,1.33c3,1.78,5.57,4,7.86,6.66c5.46,6.33,11.18,12.44,16.56,18.84
		c3.27,3.88,6.1,8.13,9.13,12.22c0.05,0.07,0.09,0.16,0.14,0.23c2.85,5.05,0.92,8.49-4.92,8.83c-4.89,0.29-9.58-0.62-14.19-2.14
		c-27.37-9.06-39.13-27.01-39.95-43.49c-0.03-0.54-0.11-1.08-0.22-1.62c-0.07-0.35-0.23-0.68-0.46-1.31
		c-22.6,0.33-45.03-1.84-67.49-7.4c0.28,0.98,0.35,1.57,0.6,2.07c0.9,1.78,1.79,3.57,2.81,5.29c6.02,10.14,24.44,55.53,15.95,63.54
		C661.71,1039.4,659.76,1040.02,657.7,1040.01z"/>
	<path d="M734.65,657.95c2.7-1.63,5.51-3.09,8.07-4.91c6.69-4.75,12.64-10.37,18.37-16.22c2.99-3.05,5.97-6.12,8.94-9.18
		c6.9-7.11,13.8-14.22,20.69-21.33c0.38-0.39,0.75-0.79,1.08-1.23c2.77-3.73,9.26-4.79,13.13-2.14c1.31,0.9,1.98,2.15,1.9,3.71
		c-0.1,2.08-0.19,4.17-0.53,6.22c-1.39,8.5-2.87,16.99-4.32,25.48c-1.38,8.05-2.78,16.09-4.16,24.13c-0.09,0.51-0.07,1.03-0.14,2.1
		c2.75-1.46,5.19-2.61,7.48-4.01c6.84-4.19,13.12-9.15,19-14.6c10.33-9.58,20.56-19.27,30.86-28.87c0.99-0.92,1.45-1.81,1.02-3.1
		c-4.57-13.73,11.7-31.26,25.92-29.86c1.84,0.18,3.71,0.81,5.4,1.59c1.73,0.8,2.5,2.52,1.91,4.36c-0.6,1.88-1.33,3.82-2.48,5.39
		c-2.35,3.22-5.01,6.22-7.56,9.29c-0.63,0.76-1.32,1.47-2.18,2.42c1.09,2.59,2.18,5.16,3.27,7.74
		c31.84,75.13-4.03,92.84-22.61,90.96c-3.56-0.36-6.25-2.31-8.24-5.24c-0.82-1.21-1.14-2.57-0.47-3.87c0.67-1.29,2.1-1.49,3.35-1.27
		c1.19,0.21,2.36,0.76,3.42,1.36c0.83,0.47,1.5,1.24,2.29,1.92c1.79-1.47,2.64-3.32,3.19-5.19c1.15-3.91,2.2-7.86,3-11.85
		c1.36-6.74,0.85-13.55,0.36-20.35c-0.79-10.91-3.59-21.45-5.89-32.07c-0.26-1.21-0.47-2.44-0.78-4.13
		c-1.2,1.14-2.09,2.01-2.99,2.85c-10.08,9.31-20.07,18.72-30.27,27.9c-5.82,5.25-12.41,9.45-19.38,13.09
		c-4.56,2.38-9.32,2.96-14.28,2.48c-6.2-0.6-10.11-4.87-10.63-11.14c-0.67-8.17,0.92-16.08,2.49-24c0.64-3.2,1.46-6.37,2.18-9.56
		c0.13-0.57,0.15-1.17-0.17-1.98c-2.5,2.61-5.06,5.16-7.49,7.83c-7.72,8.48-15.59,16.79-24.66,23.86c-2.71,2.11-5.64,4-8.65,5.66
		c-6.67,3.68-13.85,4.19-21.16,2.58c-7.26-1.6-10.42-5.6-10.65-13.07c-0.2-6.6,1.13-13,2.9-19.31c0.33-1.18,0.66-2.35,0.98-3.53
		c-0.18-0.1-0.36-0.19-0.54-0.29c-1.72,1.85-3.42,3.7-5.15,5.53c-7.63,8.05-15.17,16.18-22.92,24.1
		c-23.49,24.03-45.9,25.99-58.21,20.18c-6.77-3.19-9.19-7.51-8.03-14.93c0.46-2.94,1.2-5.89,2.25-8.67
		c4.88-12.91,11.66-24.81,19.83-35.92c1.62-2.2,3.21-4.41,4.79-6.63c0.47-0.66,0.91-1.36,1.3-2.08c2-3.77,1.18-5.53-3.1-6.22
		c-3.94-0.63-7.93-0.91-11.87-1.53c-4.12-0.65-8.2-1.52-12.31-2.28c-0.35-0.07-0.71-0.07-1.27-0.12c-0.46,0.58-1,1.17-1.44,1.83
		c-8.07,12.25-17.33,23.62-27.02,34.55c-12.14,13.7-25.43,26.29-41.08,36.02c-8.54,5.31-17.94,8.29-28.19,7.95
		c-5.07-0.17-10.16,0.21-15.17-1.1c-38.04-9.9,1.72-94.89,15.88-128.74c0.41-0.99,0.8-1.98,1.38-3.4c-1.87,0.3-3.36,0.51-4.84,0.8
		c-10.43,2.04-20.91,3.77-31.55,4.26c-5.89,0.27-11.81,0.65-17.7,0.42c-15.67-0.63-30.58-4.13-43.96-12.73
		c-2.14-1.37-4.14-2.96-6.16-4.5c-0.47-0.36-0.79-0.93-1.16-1.38c0.51-1.79,1.88-2,3.24-2.14c2.52-0.26,4.87,0.48,7.12,1.5
		c2.48,1.13,4.93,2.33,7.33,3.62c8.32,4.47,17.06,7.62,26.51,8.68c6.7,0.75,13.38,0.89,20.12,0.42c14.27-0.98,28.26-3.56,42.18-6.69
		c2.18-0.49,3.42-1.46,4.36-3.47c8.32-17.79,17.98-34.88,27.68-51.94c1.88-3.3,4.1-6.45,6.46-9.43c3.49-4.42,10.25-5.7,15.34-3.23
		c1.64,0.8,2.65,2.01,2.38,3.87c-0.42,2.86-0.79,5.75-1.51,8.55c-2.59,9.97-6.68,19.39-10.75,28.82c-2.2,5.08-4.42,10.16-6.61,15.25
		c-0.28,0.64-0.46,1.31-0.81,2.33c1.09-0.17,1.87-0.25,2.64-0.41c14.22-2.9,28.41-6.02,42.68-8.64c8.74-1.6,17.61-2.46,26.43-3.62
		c12.54-1.65,25.14-2.25,37.77-2.45c9.08-0.14,18.18-0.11,27.17,1.45c2.21,0.38,4.36,1.22,6.45,2.08c1.87,0.77,2.89,2.41,3.4,4.36
		c0.33,1.25-0.05,2.12-1.24,2.65c-2.14,0.95-5.24,0.28-6.61-1.65c-1.04-1.48-2.42-2.13-4.1-2.36c-6.04-0.84-12.1-1.23-18.2-0.93
		c-2.72,0.13-5.45,0.19-8.17,0.41c-8.05,0.63-16.11,1.2-24.14,2.03c-7.49,0.78-14.98,1.65-22.41,2.86
		c-11.73,1.91-23.44,3.99-35.09,6.3c-9.43,1.87-18.77,4.23-28.16,6.31c-1.75,0.39-2.78,1.24-3.49,2.94
		c-13.26,31.74-40.98,96.66-39.66,126.94c0.14,3.23,1.11,3.97,4.2,4.69c2.76,0.64,5.41,0.26,8.09-0.29
		c5.76-1.17,11.08-3.44,16.06-6.55c8.83-5.51,16.79-12.13,24.39-19.2c15.92-14.8,29.6-31.5,41.7-49.52
		c0.45-0.67,0.85-1.38,1.26-2.04c-0.14-0.35-0.21-0.61-0.34-0.84c-4.66-7.82-3.58-19.4,2.41-26.2c2.92-3.32,6.51-4.86,10.92-4.25
		c4.26,0.58,6.72,3.16,6.84,7.47c0.05,1.77-0.34,3.61-0.83,5.34c-1.49,5.29-4.01,10.12-6.89,14.78c-0.47,0.76-0.9,1.54-1.4,2.4
		c2.5,1.98,5.39,2.48,8.23,2.91c5.65,0.85,11.35,1.42,17,2.26c2.32,0.34,4.66,0.88,6.87,1.65c6.62,2.32,9.75,7.65,7.8,14.39
		c-2.09,7.22-4.77,14.28-7.45,21.32c-2.98,7.86-12.74,30.1-13.46,36.66c1.09,1.38,2.52,1.37,3.81,1
		c10.59-2.99,20.34-7.18,31.49-18.59c10.48-10.72,20.65-21.75,30.96-32.63c3.56-3.76,7.13-7.52,10.79-11.18
		c1.63-1.63,2.9-3.43,3.98-5.46c1.53-2.88,3.22-5.69,5.05-8.38c2.2-3.24,5.46-4.8,9.32-4.75c2.61,0.03,5.3,0.13,7.79,0.82
		c3.62,1.01,4.38,2.8,3.27,6.43c-3.3,10.77-6.77,21.48-9.93,32.28c-2.16,7.4-3.92,14.92-5.84,22.39c-0.17,0.68-0.21,1.4-0.31,2.1
		C734.26,657.59,734.45,657.77,734.65,657.95z M620.79,583.74c2.44-3.85,3.84-8.95,3.21-11.73
		C621.77,575.63,620.97,579.42,620.79,583.74z"/>
	<path d="M953.68,530.67c-3.66,0.53-6.7,0.92-9.72,1.41c-15.14,2.45-30.25,5.1-45.42,7.3c-7.8,1.13-15.71,1.85-23.58,2.09
		c-14.95,0.47-29.55-1.57-43.29-7.95c-3.56-1.65-7.02-3.53-9.71-6.44c-1.14-1.23-2.05-2.76-2.75-4.3c-0.8-1.76-0.59-3.61,0.84-5.06
		c1.15-1.17,3.45-1.08,5.74,0.15c-0.9,1.97,0.5,3.08,1.81,4.21c6.93,5.98,15.13,9.27,23.94,11.21c10.04,2.2,20.17,2.29,30.36,1.27
		c16.19-1.62,32.13-4.77,48.14-7.51c8.41-1.44,16.83-2.8,25.26-4.09c1.72-0.26,2.71-1.03,3.47-2.57
		c5.16-10.32,10.24-20.68,15.65-30.87c4.56-8.59,9.7-16.86,15.8-24.48c1.41-1.77,2.98-3.44,4.64-4.97c3.3-3.03,7.23-3.09,11.24-1.84
		c2.09,0.65,2.75,1.74,2.63,3.91c-0.08,1.34-0.3,2.74-0.79,3.97c-2.44,6.16-4.93,12.3-7.5,18.41c-4.69,11.13-9.46,22.23-14.19,33.34
		c-0.1,0.24-0.14,0.51-0.27,0.99c1.79-0.11,3.46-0.19,5.13-0.33c8.87-0.73,17.73-1.43,26.59-2.21c17.21-1.53,34.47-1.87,51.73-1.78
		c10.81,0.05,21.62,0.4,32.42,0.91c10.61,0.51,21.21,1.28,31.8,2.16c4.6,0.38,9.17,1.2,13.72,2.05c1.55,0.29,3.04,1.15,4.42,1.98
		c1.14,0.69,1.73,1.91,1.42,3.3c-0.31,1.38-1.53,1.8-2.69,1.94c-2.35,0.28-4.68,0.42-6.89-0.88c-0.98-0.58-2.2-0.93-3.34-1.03
		c-5.15-0.46-10.31-0.91-15.48-1.14c-10.88-0.48-21.77-0.99-32.66-1.19c-16.08-0.3-32.16-0.52-48.24-0.41
		c-7.97,0.06-15.93,0.93-23.9,1.45c-5.98,0.39-11.95,0.73-17.92,1.21c-5.88,0.47-11.74,1.11-17.61,1.64
		c-1.3,0.12-2.14,0.65-2.68,1.91c-7.33,17.01-48.39,120.76-37.55,136.35c3.69,5.31,15.29-3.02,20.31-6.92
		c11.33-8.79,21.23-19.03,30.39-30.03c4.88-5.86,9.86-11.65,14.9-17.38c2.17-2.47,4.61-2.58,7.45-0.54
		c-0.38,0.81-0.66,1.76-1.2,2.52c-3.53,4.95-6.93,10.01-10.71,14.76c-8.77,11.05-18.2,21.53-29.1,30.54
		c-16.01,13.22-28.1,21.59-47.02,11.93c-6.61-3.38-10.2-9.15-11.29-16.42c-3.58-23.98,22.79-92.24,33.73-118.04
		C952.26,533.91,952.84,532.6,953.68,530.67z"/>
</g>
</svg>
