<?xml version="1.0" encoding="utf-8"?>
<!-- Generator: Adobe Illustrator 26.5.0, SVG Export Plug-In . SVG Version: 6.00 Build 0)  -->
<svg version="1.1" id="Capa_1" xmlns="http://www.w3.org/2000/svg" xmlns:xlink="http://www.w3.org/1999/xlink" x="0px" y="0px"
	 viewBox="0 0 425.2 425.2" style="enable-background:new 0 0 425.2 425.2;" xml:space="preserve">
<style type="text/css">
	.st0{fill:none;stroke:#000000;stroke-width:1.5974;stroke-linecap:round;stroke-linejoin:round;stroke-miterlimit:10;}
	.st1{fill:#FFFFFF;stroke:#000000;stroke-width:1.5974;stroke-linecap:round;stroke-linejoin:round;stroke-miterlimit:10;}
	.st2{fill:#E76C6F;}
	.st3{fill:#FFFFFF;}
	.st4{fill:#BDD7CC;}
	.st5{fill:#D8DADE;}
	.st6{fill:#6AA5A6;}
	.st7{fill:#54766B;}
	.st8{fill:#71978A;}
	.st9{fill:#AF7B66;}
	.st10{fill:#E9A689;}
	.st11{fill:#949126;}
	.st12{fill:#BDB82D;}
</style>
<g id="Paquete_de_vectores:_motivo_de_puntos_15">
</g>
<g id="Paquete_de_vectores:_motivo_de_puntos_15_1_">
</g>
<g id="Paquete_de_vectores:_motivo_de_puntos_03">
</g>
<g>
	<g>
		<path class="st0" d="M277.12,139.25c0,0-65.25,104.4-74.09,151.27c-4.8,25.47,0,92.31,0,92.31"/>
		<g>
			<path class="st1" d="M277.09,133.44c0,0,7.64,5.23,4.65,12.21c0,0-6.96,1.38-9.84-2.08
				C271.89,143.56,278.71,138.27,277.09,133.44z"/>
			<g>
				<g>
					<g>
						<path class="st2" d="M245.84,81.52c-2.95,21.04,14.56,53.64,31,55.95c17.2,2.42,42.26-24.2,45.21-45.25
							c2.96-21.05-11.32-43.22-32.37-46.18C268.64,43.09,248.8,60.47,245.84,81.52z"/>
					</g>
				</g>
				<path class="st3" d="M260.21,95.07c-2.44-17.37,9.35-35.68,26.72-38.12c3.01-0.42,5.98-0.33,8.86,0.18
					c-5.05-3.24-11.04-4.84-17.17-3.98c-14.73,2.06-24.72,17.59-22.65,32.32c0.58,4.17,2.45,8.96,5.1,13.66
					C260.68,97.73,260.39,96.37,260.21,95.07z"/>
			</g>
		</g>
	</g>
	<g>
		<path class="st0" d="M223.86,132.86c0,0-1.03,63.28-13.94,97.83c-8.06,21.58-13.95,66.07-13.95,87.82
			c0,25.92,12.48,64.31,12.48,64.31"/>
		<g>
			<path class="st1" d="M222.43,124.7c0,0,8.29,4.12,6.3,11.44c0,0-6.7,2.33-10.04-0.69C218.69,135.45,224.71,129.26,222.43,124.7z"
				/>
			<g>
				<g>
					<g>
						<path class="st4" d="M184.27,77.63c0,21.25,21.87,51.1,38.48,51.1c17.37,0,38.48-29.84,38.48-51.1
							c0-21.25-17.23-41.23-38.48-41.23C201.5,36.41,184.27,56.38,184.27,77.63z"/>
					</g>
				</g>
				<path class="st3" d="M193.77,84.67c0-17.54,14.22-34.03,31.76-34.03c3.04,0,5.97,0.51,8.75,1.41
					c-4.55-3.91-10.25-6.34-16.45-6.34c-14.87,0-26.93,13.98-26.93,28.86c0,4.21,1.18,9.21,3.15,14.23
					C193.87,87.37,193.77,85.99,193.77,84.67z"/>
			</g>
		</g>
	</g>
	<g>
		<path class="st0" d="M175.81,154.94c0,0,0,44.15,12.92,78.7c8.06,21.58,30.39,47.67,30.39,69.42c0,25.92-12.48,64.31-12.48,64.31"
			/>
		<g>
			<path class="st1" d="M177.25,146.77c0,0-8.28,4.12-6.3,11.45c0,0,6.71,2.33,10.04-0.69
				C180.99,157.53,174.96,151.34,177.25,146.77z"/>
			<g>
				<g>
					<g>
						<path class="st5" d="M215.41,99.71c0,21.25-21.88,51.1-38.48,51.1c-17.37,0-38.49-29.84-38.49-51.1
							c0-21.26,17.23-41.23,38.49-41.23C198.18,58.48,215.41,78.45,215.41,99.71z"/>
					</g>
				</g>
				<path class="st3" d="M148.29,106.75c0-17.54,14.22-34.03,31.76-34.03c3.04,0,5.97,0.5,8.75,1.41
					c-4.56-3.9-10.25-6.33-16.45-6.33c-14.88,0-26.93,13.98-26.93,28.85c0,4.21,1.18,9.21,3.16,14.24
					C148.4,109.45,148.29,108.06,148.29,106.75z"/>
			</g>
		</g>
	</g>
	<g>
		<path class="st0" d="M147.71,130.72c0,0,6.04,43.74,23.56,76.2c10.94,20.27,36.63,43.06,39.61,64.61
			c3.55,25.67-3.56,65.41-3.56,65.41"/>
		<g>
			<path class="st1" d="M148,122.43c0,0-7.64,5.21-4.67,12.19c0,0,6.96,1.4,9.85-2.05C153.18,132.57,146.37,127.26,148,122.43z"/>
			<g>
				<g>
					<g>
						<path class="st6" d="M179.37,70.58c2.91,21.05-14.68,53.61-31.12,55.89c-17.21,2.38-42.2-24.3-45.11-45.35
							c-2.91-21.05,11.43-43.2,32.48-46.11C156.66,32.1,176.45,49.53,179.37,70.58z"/>
					</g>
				</g>
				<path class="st3" d="M113.84,86.74c-2.4-17.38,9.44-35.66,26.81-38.06c3.01-0.42,5.98-0.32,8.87,0.2
					c-5.05-3.24-11.03-4.87-17.17-4.02c-14.73,2.03-24.77,17.53-22.73,32.27c0.58,4.17,2.43,8.97,5.07,13.67
					C114.31,89.4,114.02,88.05,113.84,86.74z"/>
			</g>
		</g>
	</g>
	<g>
		<path class="st0" d="M261.75,184.3c0,0-55.36,107.66-55.36,129.42c0,25.91,0,76.79,0,76.79"/>
		<g>
			<path class="st7" d="M260.91,178.55c0,0,8.29,4.12,6.3,11.44c0,0-6.7,2.33-10.04-0.69C257.17,189.31,263.19,183.12,260.91,178.55
				z"/>
			<g>
				<g>
					<g>
						<path class="st8" d="M222.75,131.48c0,21.25,21.88,51.1,38.48,51.1c17.37,0,38.48-29.84,38.48-51.1
							c0-21.25-17.23-41.23-38.48-41.23C239.97,90.26,222.75,110.24,222.75,131.48z"/>
					</g>
				</g>
				<path class="st3" d="M235.42,138.52c0-17.55,14.22-34.03,31.76-34.03c3.04,0,5.98,0.51,8.76,1.41
					c-4.55-3.91-10.25-6.34-16.45-6.34c-14.88,0-26.93,13.98-26.93,28.86c0,4.21,1.18,9.21,3.15,14.23
					C235.52,141.22,235.42,139.84,235.42,138.52z"/>
			</g>
		</g>
	</g>
	<g>
		<path class="st0" d="M146.02,184.3c0,0,0,37.75,46.8,115.5c10.81,17.95,14.51,68.15,3.15,85.42"/>
		<g>
			<path class="st9" d="M147.43,183.16c0,0-8.28,4.14-6.27,11.46c0,0,6.71,2.31,10.04-0.72
				C151.19,193.9,145.15,187.73,147.43,183.16z"/>
			<g>
				<g>
					<g>
						<path class="st10" d="M184.5,134.72c0,21.25-21.88,51.09-38.47,51.09c-17.37,0-38.49-29.84-38.49-51.09
							s17.23-41.23,38.49-41.23C167.27,93.49,184.5,113.47,184.5,134.72z"/>
					</g>
				</g>
				<path class="st3" d="M117.38,141.76c0-17.54,14.22-34.03,31.76-34.03c3.04,0,5.97,0.51,8.75,1.41
					c-4.55-3.9-10.25-6.34-16.45-6.34c-14.87,0-26.93,13.98-26.93,28.86c0,4.21,1.18,9.21,3.15,14.23
					C117.48,144.46,117.38,143.07,117.38,141.76z"/>
			</g>
		</g>
	</g>
	<g>
		<path class="st0" d="M205.35,206.94c0,0-5.19,135.58,1.04,170.61"/>
		<g>
			<path class="st11" d="M208.38,199.17c0,0-8.28,4.12-6.3,11.44c0,0,6.7,2.33,10.04-0.68C212.13,209.93,206.1,203.74,208.38,199.17
				z"/>
			<g>
				<g>
					<g>
						<path class="st12" d="M246.54,152.11c0,21.24-21.88,51.09-38.48,51.09c-17.37,0-38.48-29.85-38.48-51.09
							c0-21.25,17.23-41.23,38.48-41.23C229.32,110.88,246.54,130.86,246.54,152.11z"/>
					</g>
				</g>
				<path class="st3" d="M179.43,159.15c0-17.54,14.22-34.04,31.76-34.04c3.04,0,5.97,0.51,8.75,1.42
					c-4.55-3.9-10.25-6.34-16.45-6.34c-14.88,0-26.94,13.98-26.94,28.85c0,4.21,1.18,9.21,3.16,14.24
					C179.53,161.85,179.43,160.47,179.43,159.15z"/>
			</g>
		</g>
	</g>
</g>
</svg>
